<svg width="53" height="53" viewBox="0 0 53 53" fill="none" xmlns="http://www.w3.org/2000/svg">
<path d="M34.98 36.5699L24.115 25.7049C23.585 25.1749 23.055 24.3799 23.055 23.3199C23.055 21.4649 24.645 19.8749 26.5 19.8749C26.765 19.8749 27.295 19.8749 27.56 20.1399C29.415 20.6699 30.475 22.5249 29.945 24.3799C29.68 25.7049 30.21 27.0299 31.535 27.2949C32.86 27.5599 34.185 27.0299 34.45 25.7049C34.715 24.9099 34.715 24.1149 34.715 23.3199C34.715 18.8149 31.005 15.1049 26.5 15.1049C24.38 15.1049 22.26 15.8999 20.67 17.4899C17.49 20.6699 17.49 25.9699 20.67 29.1499L31.535 40.0149C32.595 41.0749 33.92 41.0749 34.98 40.0149C36.04 39.2199 36.04 37.6299 34.98 36.5699ZM39.485 10.5999C32.33 3.70986 21.2 3.44486 14.045 10.5999C6.88996 17.7549 6.88996 29.1499 14.045 36.0399L24.91 46.9049C25.97 47.9649 27.295 47.9649 28.355 46.9049C29.415 45.8449 29.415 44.5199 28.355 43.4599L17.49 32.5949C12.455 27.5599 12.455 19.0799 17.49 14.0449C22.525 9.00986 31.005 9.00986 36.04 14.0449C40.28 18.5499 40.81 25.7049 37.365 30.7399C36.57 31.7999 37.1 33.3899 38.16 34.1849C39.22 34.9799 40.81 34.4499 41.605 33.3899C46.11 26.2349 45.315 16.6949 39.485 10.5999Z" fill="#FF980E"/>
</svg>
